<svg width="191" height="50" viewBox="0 0 191 50" fill="none" xmlns="http://www.w3.org/2000/svg">
<path fill-rule="evenodd" clip-rule="evenodd" d="M164.665 21.61L166.953 26.1159H162.378L164.665 21.61ZM173.391 25.8633H178.597C180.017 25.8633 180.853 26.0686 180.853 27.1911C180.853 28.2976 180.017 28.5195 178.597 28.5195H173.391V25.8633ZM173.391 21.4361H178.077C179.449 21.4361 180.301 21.6733 180.301 22.6852C180.301 23.7127 179.449 23.934 178.077 23.934H173.391V21.4361ZM158.642 30.5115H160.154L161.337 28.1716H168.01L169.193 30.5115H170.899H171.922H179.118C181.768 30.5115 183.44 29.4363 183.44 27.4757C183.44 25.721 182.084 24.8198 180.348 24.7245C181.989 24.6139 182.809 23.5387 182.809 22.2739C182.809 20.4872 181.137 19.4443 178.487 19.4443H170.899V28.5754L166.07 19.4443H163.309L158.61 28.3295H150.833V19.4443H148.309V30.5115H157.456H158.642Z" fill="#2DE1AF"/>
<path fill-rule="evenodd" clip-rule="evenodd" d="M143.727 47.1743H188.022V2.78136H143.727V47.1743ZM140.952 49.9553H190.797V0H140.952V49.9553Z" fill="#2DE1AF"/>
<path fill-rule="evenodd" clip-rule="evenodd" d="M13.8188 28.3447C11.0761 28.3447 8.49032 29.0282 6.22017 30.2326L13.7861 16.3933L21.3251 30.1841C19.0774 29.0098 16.5247 28.3447 13.8188 28.3447ZM12.2721 13.8545L0 36.0134H0.00885626H3.06013H3.12242C5.64852 32.8903 9.50424 30.8894 13.8187 30.8894C18.1282 30.8894 21.9795 32.8858 24.5056 36.0024L24.5115 36.0134H24.515H27.6289H27.6374L15.3653 13.8545H12.2721Z" fill="white"/>
<path fill-rule="evenodd" clip-rule="evenodd" d="M51.7871 25.9237H41.4563V16.4264H51.7871C55.538 16.4264 57.9729 17.9433 57.9729 21.1749C57.9729 24.4069 55.538 25.9237 51.7871 25.9237ZM51.9842 13.8545H38.6924V36.0134H41.4561V28.4956H51.9842C57.2817 28.4956 60.8026 25.7918 60.8026 21.1749C60.8026 16.5586 57.2817 13.8545 51.9842 13.8545Z" fill="white"/>
<path fill-rule="evenodd" clip-rule="evenodd" d="M71.8579 36.0131H93.9679V33.4412H74.622V26.2196H91.3249V23.6477H74.622V16.4264H93.9679V13.8545H71.8579V36.0131Z" fill="white"/>
<path fill-rule="evenodd" clip-rule="evenodd" d="M126.376 13.8545L117.509 22.9882L108.642 13.8545H105.022L115.633 24.8681L105.022 36.0131H108.543L117.41 26.7802L126.277 36.0131H129.896L119.285 24.835L129.896 13.8545H126.376Z" fill="white"/>
</svg>
